<?xml version="1.0" standalone="no"?>
<!DOCTYPE svg PUBLIC "-//W3C//DTD SVG 20010904//EN"
 "http://www.w3.org/TR/2001/REC-SVG-20010904/DTD/svg10.dtd">
<svg version="1.0" xmlns="http://www.w3.org/2000/svg"
 width="512.000000pt" height="512.000000pt" viewBox="0 0 512.000000 512.000000"
 preserveAspectRatio="xMidYMid meet">

<g transform="translate(0.000000,512.000000) scale(0.100000,-0.100000)"
fill="#ffffff" stroke="none">
<path d="M1060 5109 c-37 -14 -1017 -996 -1042 -1043 -39 -76 -4 -170 76 -207
36 -16 69 -19 292 -19 l252 0 5 -317 c4 -276 7 -331 26 -415 71 -322 239 -607
475 -805 49 -41 236 -173 416 -293 180 -120 345 -234 366 -252 21 -18 55 -60
76 -92 75 -117 72 -80 78 -863 5 -689 5 -702 26 -729 11 -15 33 -37 48 -48 26
-20 42 -21 391 -24 407 -3 411 -3 461 64 l29 37 5 706 c5 695 5 707 27 759 29
73 77 144 123 186 21 19 188 134 370 256 182 122 370 254 418 294 234 197 403
483 473 804 19 84 22 139 26 415 l5 317 252 0 c223 0 256 3 292 19 80 37 115
131 76 207 -12 23 -228 245 -524 541 -545 544 -523 525 -615 508 -33 -6 -99
-67 -545 -512 -333 -333 -512 -519 -523 -544 -36 -78 11 -181 94 -208 21 -7
130 -11 282 -11 l249 0 0 -246 c0 -186 -4 -262 -16 -314 -16 -73 -65 -164
-117 -218 -18 -19 -185 -137 -373 -262 -187 -126 -366 -249 -397 -275 l-57
-46 -57 46 c-31 26 -210 149 -397 275 -188 125 -355 243 -373 262 -52 54 -101
145 -117 218 -12 52 -16 128 -16 314 l0 246 249 0 c152 0 261 4 282 11 78 25
128 127 99 202 -17 42 -1003 1034 -1047 1053 -37 16 -87 17 -123 3z"/>
</g>
</svg>
